<svg xmlns="http://www.w3.org/2000/svg" viewBox="0 0 1338.01 208.77"><defs><style>.cls-1{fill:#0046ff;}</style></defs><g id="Capa_2" data-name="Capa 2"><g id="Capa_1-2" data-name="Capa 1"><rect class="cls-1" x="67.37" y="-27.9" width="74.03" height="264.58" rx="37.02" transform="translate(104.39 -43.24) rotate(45)"/><rect class="cls-1" x="198.28" y="-27.9" width="74.03" height="264.58" rx="37.02" transform="translate(142.73 -135.81) rotate(45)"/><rect class="cls-1" x="286.53" y="77.38" width="74.03" height="141.23" rx="37.02" transform="translate(199.41 -185.44) rotate(45)"/><path class="cls-1" d="M506.78,145.46H506L465.79,85.17v91.91H443.36V48.4h24.08l39.16,60.85L545.75,48.4h24.08V177.08H547.4V84.8Z"/><path class="cls-1" d="M595.56,65.13V44h24.08V65.13Zm.92,112V80h22.43v97.06Z"/><path class="cls-1" d="M711,174.23q-9.19,5.06-23.34,5.05a50.13,50.13,0,0,1-20-3.95,49.48,49.48,0,0,1-16-10.84,50.25,50.25,0,0,1-14.36-35.57,51.11,51.11,0,0,1,14.36-35.85A49.89,49.89,0,0,1,687.84,78q13.78,0,22.89,4.59a54.25,54.25,0,0,1,15.9,12.14l-13.79,14.89a51.42,51.42,0,0,0-10.94-8.74,27.77,27.77,0,0,0-14.24-3.4A25.41,25.41,0,0,0,676.44,100a27.14,27.14,0,0,0-8.82,6.71,32.08,32.08,0,0,0-5.79,9.83,33.83,33.83,0,0,0-2.11,12,35.15,35.15,0,0,0,2.11,12.32,30.08,30.08,0,0,0,6,9.92,28.67,28.67,0,0,0,9.2,6.71,29.61,29.61,0,0,0,25.64-.92,52.83,52.83,0,0,0,11.3-8.73l13.42,13.24A61.09,61.09,0,0,1,711,174.23Z"/><path class="cls-1" d="M764.86,177.08H742.43V80h22.43V101.9a42.64,42.64,0,0,1,13-17.65q8.46-6.61,21.32-6.07v23.53H798a36.38,36.38,0,0,0-13.42,2.39,28.2,28.2,0,0,0-10.48,7.17,32.39,32.39,0,0,0-6.8,12,53.93,53.93,0,0,0-2.39,16.82Z"/><path class="cls-1" d="M904.1,148.22a50.41,50.41,0,0,1-27.29,27,55.29,55.29,0,0,1-41.27.09,49.69,49.69,0,0,1-27.11-26.84,51.47,51.47,0,0,1,.09-39.33A50.77,50.77,0,0,1,819.36,93,51.66,51.66,0,0,1,835.72,82a52.21,52.21,0,0,1,20.68-4,53.21,53.21,0,0,1,20.68,4,49.91,49.91,0,0,1,31,46.6A49.17,49.17,0,0,1,904.1,148.22Zm-20.66-31.43a31.54,31.54,0,0,0-6.12-10A28.64,28.64,0,0,0,868,100a28.77,28.77,0,0,0-33.16,6.71,29.14,29.14,0,0,0-5.84,9.83,35.42,35.42,0,0,0-2,12,34.24,34.24,0,0,0,2.19,12.22,30.27,30.27,0,0,0,6.12,10,29.17,29.17,0,0,0,9.32,6.71A27.73,27.73,0,0,0,856.4,160a28.62,28.62,0,0,0,12.15-2.48,28.11,28.11,0,0,0,9.22-6.71,29,29,0,0,0,5.85-9.83,35.42,35.42,0,0,0,2-12A33.51,33.51,0,0,0,883.44,116.79Z"/><path class="cls-1" d="M930.67,48.4h52.75c14.89,0,26.66,3.86,33.83,11,5.33,5.33,8.27,12.5,8.27,21.33v.36c0,15.81-10.11,27-24.82,30.33,17.65,2.58,31.62,14.71,31.62,32v.37c0,21.14-16.91,33.27-46,33.27H930.67Zm55.69,61.77c19.12,0,35.11-9.19,35.11-28.86v-.37c0-17.46-14.15-28.86-38.23-28.86H934.71v58.09Zm0,63.23c26.47,0,41.92-10.84,41.92-29.41v-.37c0-19.48-17.65-29.78-38.79-29.78H934.71V173.4Z"/><path class="cls-1" d="M1049,151.71v-.37c0-19.3,18-29.22,41-29.22a106.35,106.35,0,0,1,34.55,5.69v-7.72c0-22.24-13.23-32.72-34.74-32.72-11.4,0-20.95,3.13-30.51,7.72l-1.47-3.31c10.11-5,20.22-8.08,32.17-8.08,12.68,0,22.61,3.31,29.41,10.11,5.7,5.7,9,14.7,9,26.1v57.17h-3.86V155.39c-3.86,10.66-17.64,23.89-41.17,23.89C1065.4,179.28,1049,169.91,1049,151.71Zm75.55-8.27V131.67c-9.74-3.67-20.4-5.88-34.37-5.88-20.77,0-37.13,8.46-37.13,25.37v.37c0,16.17,14.33,24.08,30.51,24.08C1108.23,175.61,1124.59,159.8,1124.59,143.44Z"/><path class="cls-1" d="M1155.66,85.17h3.86v25.18a38,38,0,0,1,37-27.39c24.81,0,38.6,16.73,38.6,42.1v52h-3.86V125.42c0-23-12-38.78-35.11-38.78-20.41,0-36.58,17.46-36.58,39.52v50.92h-3.86Z"/><path class="cls-1" d="M1262.27,42.89h3.86v102l63.79-59.74h5.14l-43.75,40.62,46.7,51.29h-4.78l-44.31-48.9-22.79,21.14v27.76h-3.86Z"/></g></g></svg>